<svg width="1348" height="564" viewBox="0 0 1348 564" fill="none" xmlns="http://www.w3.org/2000/svg">
<path d="M127.025 221.18C109.005 221.18 93.2375 217.205 79.7225 209.255C66.2075 201.305 55.6075 189.247 47.9225 173.082C40.5025 156.652 36.7925 135.982 36.7925 111.072C36.7925 85.8975 40.37 65.2275 47.525 49.0625C54.68 32.8975 65.015 20.84 78.53 12.89C92.045 4.93999 108.21 0.964996 127.025 0.964996C147.165 0.964996 165.185 5.60249 181.085 14.8775C197.25 23.8875 209.97 36.6075 219.245 53.0375C228.785 69.4675 233.555 88.8125 233.555 111.072C233.555 133.597 228.785 153.075 219.245 169.505C209.97 185.935 197.25 198.655 181.085 207.665C165.185 216.675 147.165 221.18 127.025 221.18ZM0.619995 295.115V4.14498H59.8475V47.87L58.655 111.47L62.63 174.673V295.115L31 273L0.619995 295.115ZM116.292 170.3C126.627 170.3 135.77 167.915 143.72 163.145C151.935 158.375 158.428 151.617 163.198 142.872C168.233 133.862 170.75 123.262 170.75 111.072C170.75 98.6175 168.233 88.0175 163.198 79.2725C158.428 70.5275 151.935 63.77 143.72 59C135.77 54.23 126.627 51.845 116.292 51.845C105.957 51.845 96.6825 54.23 88.4675 59C80.2525 63.77 73.76 70.5275 68.99 79.2725C64.22 88.0175 61.835 98.6175 61.835 111.072C61.835 123.262 64.22 133.862 68.99 142.872C73.76 151.617 80.2525 158.375 88.4675 163.145C96.6825 167.915 105.957 170.3 116.292 170.3Z" fill="black"/>
<path d="M275.066 218V4.14498H334.293V64.565L325.946 47.075C332.306 31.97 342.508 20.575 356.553 12.89C370.598 4.93999 387.691 0.964996 407.831 0.964996V58.205C405.181 57.94 402.796 57.8075 400.676 57.8075C398.556 57.5425 396.303 57.41 393.918 57.41C376.958 57.41 363.178 62.3125 352.578 72.1175C342.243 81.6575 337.076 96.63 337.076 117.035V218H275.066Z" fill="black"/>
<path d="M549.282 221.18C524.902 221.18 503.437 216.41 484.887 206.87C466.602 197.33 452.424 184.345 442.354 167.915C432.284 151.22 427.249 132.272 427.249 111.072C427.249 89.6075 432.152 70.66 441.957 54.23C452.027 37.535 465.674 24.55 482.899 15.275C500.124 5.73499 519.602 0.964996 541.332 0.964996C562.267 0.964996 581.082 5.46999 597.777 14.48C614.737 23.225 628.119 35.945 637.924 52.64C647.729 69.07 652.632 88.8125 652.632 111.867C652.632 114.252 652.499 117.035 652.234 120.215C651.969 123.13 651.704 125.912 651.439 128.562H477.732V92.39H618.844L594.994 103.122C594.994 91.9925 592.742 82.32 588.237 74.105C583.732 65.89 577.504 59.53 569.554 55.025C561.604 50.255 552.329 47.87 541.729 47.87C531.129 47.87 521.722 50.255 513.507 55.025C505.557 59.53 499.329 66.0225 494.824 74.5025C490.319 82.7175 488.067 92.5225 488.067 103.917V113.457C488.067 125.117 490.584 135.452 495.619 144.462C500.919 153.207 508.207 159.965 517.482 164.735C527.022 169.24 538.152 171.492 550.872 171.492C562.267 171.492 572.204 169.77 580.684 166.325C589.429 162.88 597.379 157.712 604.534 150.822L637.527 186.598C627.722 197.728 615.399 206.34 600.559 212.435C585.719 218.265 568.627 221.18 549.282 221.18Z" fill="black"/>
<path d="M820.321 221.18C802.301 221.18 786.533 217.205 773.018 209.255C759.503 201.305 748.903 189.247 741.218 173.082C733.798 156.652 730.088 135.982 730.088 111.072C730.088 85.8975 733.666 65.2275 740.821 49.0625C747.976 32.8975 758.311 20.84 771.826 12.89C785.341 4.93999 801.506 0.964996 820.321 0.964996C840.461 0.964996 858.481 5.60249 874.381 14.8775C890.546 23.8875 903.266 36.6075 912.541 53.0375C922.081 69.4675 926.851 88.8125 926.851 111.072C926.851 133.597 922.081 153.075 912.541 169.505C903.266 185.935 890.546 198.655 874.381 207.665C858.481 216.675 840.461 221.18 820.321 221.18ZM693.916 295.115V4.14498H753.143V47.87L751.951 111.47L755.926 174.673V295.115H693.916ZM809.588 170.3C819.923 170.3 829.066 167.915 837.016 163.145C845.231 158.375 851.723 151.617 856.493 142.872C861.528 133.862 864.046 123.262 864.046 111.072C864.046 98.6175 861.528 88.0175 856.493 79.2725C851.723 70.5275 845.231 63.77 837.016 59C829.066 54.23 819.923 51.845 809.588 51.845C799.253 51.845 789.978 54.23 781.763 59C773.548 63.77 767.056 70.5275 762.286 79.2725C757.516 88.0175 755.131 98.6175 755.131 111.072C755.131 123.262 757.516 133.862 762.286 142.872C767.056 151.617 773.548 158.375 781.763 163.145C789.978 167.915 799.253 170.3 809.588 170.3Z" fill="black"/>
<path d="M314.8 489.2C291.6 489.2 270.933 484.533 252.8 475.2C234.667 465.6 220.4 452.4 210 435.6C199.867 418.8 194.8 399.733 194.8 378.4C194.8 356.8 199.867 337.733 210 321.2C220.4 304.4 234.667 291.333 252.8 282C270.933 272.4 291.6 267.6 314.8 267.6C337.467 267.6 357.2 272.4 374 282C390.8 291.333 403.2 304.8 411.2 322.4L362.8 348.4C357.2 338.267 350.133 330.8 341.6 326C333.333 321.2 324.267 318.8 314.4 318.8C303.733 318.8 294.133 321.2 285.6 326C277.067 330.8 270.267 337.6 265.2 346.4C260.4 355.2 258 365.867 258 378.4C258 390.933 260.4 401.6 265.2 410.4C270.267 419.2 277.067 426 285.6 430.8C294.133 435.6 303.733 438 314.4 438C324.267 438 333.333 435.733 341.6 431.2C350.133 426.4 357.2 418.8 362.8 408.4L411.2 434.8C403.2 452.133 390.8 465.6 374 475.2C357.2 484.533 337.467 489.2 314.8 489.2Z" fill="black"/>
<path d="M579.128 486V444L575.128 434.8V359.6C575.128 346.267 570.995 335.867 562.728 328.4C554.728 320.933 542.328 317.2 525.528 317.2C514.061 317.2 502.728 319.067 491.528 322.8C480.595 326.267 471.261 331.067 463.528 337.2L441.128 293.6C452.861 285.333 466.995 278.933 483.528 274.4C500.061 269.867 516.861 267.6 533.928 267.6C566.728 267.6 592.195 275.333 610.328 290.8C628.461 306.267 637.528 330.4 637.528 363.2V486H579.128ZM513.528 489.2C496.728 489.2 482.328 486.4 470.328 480.8C458.328 474.933 449.128 467.067 442.728 457.2C436.328 447.333 433.128 436.267 433.128 424C433.128 411.2 436.195 400 442.328 390.4C448.728 380.8 458.728 373.333 472.328 368C485.928 362.4 503.661 359.6 525.528 359.6H582.728V396H532.328C517.661 396 507.528 398.4 501.928 403.2C496.595 408 493.928 414 493.928 421.2C493.928 429.2 496.995 435.6 503.128 440.4C509.528 444.933 518.195 447.2 529.128 447.2C539.528 447.2 548.861 444.8 557.128 440C565.395 434.933 571.395 427.6 575.128 418L584.728 446.8C580.195 460.667 571.928 471.2 559.928 478.4C547.928 485.6 532.461 489.2 513.528 489.2Z" fill="black"/>
<path d="M969.603 267.6C986.67 267.6 1001.74 271.067 1014.8 278C1028.14 284.667 1038.54 295.067 1046 309.2C1053.74 323.067 1057.6 340.933 1057.6 362.8V486H995.203V372.4C995.203 355.067 991.603 342.267 984.403 334C977.203 325.733 967.07 321.6 954.003 321.6C944.936 321.6 936.803 323.733 929.603 328C922.403 332 916.803 338.133 912.803 346.4C908.803 354.667 906.803 365.2 906.803 378V486H844.403V372.4C844.403 355.067 840.803 342.267 833.603 334C826.67 325.733 816.67 321.6 803.603 321.6C794.536 321.6 786.403 323.733 779.203 328C772.003 332 766.403 338.133 762.403 346.4C758.403 354.667 756.403 365.2 756.403 378V486H694.003V270.8H753.603V329.6L742.403 312.4C749.87 297.733 760.403 286.667 774.003 279.2C787.87 271.467 803.603 267.6 821.203 267.6C840.936 267.6 858.136 272.667 872.803 282.8C887.736 292.667 897.603 307.867 902.403 328.4L880.403 322.4C887.603 305.6 899.07 292.267 914.803 282.4C930.803 272.533 949.07 267.6 969.603 267.6Z" fill="black"/>
<path d="M1240.73 489.2C1222.6 489.2 1206.73 485.2 1193.13 477.2C1179.53 469.2 1168.87 457.067 1161.13 440.8C1153.67 424.267 1149.93 403.467 1149.93 378.4C1149.93 353.067 1153.53 332.267 1160.73 316C1167.93 299.733 1178.33 287.6 1191.93 279.6C1205.53 271.6 1221.8 267.6 1240.73 267.6C1261 267.6 1279.13 272.267 1295.13 281.6C1311.4 290.667 1324.2 303.467 1333.53 320C1343.13 336.533 1347.93 356 1347.93 378.4C1347.93 401.067 1343.13 420.667 1333.53 437.2C1324.2 453.733 1311.4 466.533 1295.13 475.6C1279.13 484.667 1261 489.2 1240.73 489.2ZM1113.53 563.6V270.8H1173.13V314.8L1171.93 378.8L1175.93 442.4V563.6H1144.5H1113.53ZM1229.93 438C1240.33 438 1249.53 435.6 1257.53 430.8C1265.8 426 1272.33 419.2 1277.13 410.4C1282.2 401.333 1284.73 390.667 1284.73 378.4C1284.73 365.867 1282.2 355.2 1277.13 346.4C1272.33 337.6 1265.8 330.8 1257.53 326C1249.53 321.2 1240.33 318.8 1229.93 318.8C1219.53 318.8 1210.2 321.2 1201.93 326C1193.67 330.8 1187.13 337.6 1182.33 346.4C1177.53 355.2 1175.13 365.867 1175.13 378.4C1175.13 390.667 1177.53 401.333 1182.33 410.4C1187.13 419.2 1193.67 426 1201.93 430.8C1210.2 435.6 1219.53 438 1229.93 438Z" fill="black"/>
</svg>
