<svg width="226" height="221" viewBox="0 0 226 221" fill="none" xmlns="http://www.w3.org/2000/svg">
<g clip-path="url(#clip0_21_18)">
<path d="M219.689 -7.52611e-06C218.926 0.0924989 218.19 0.337772 217.525 0.721146L79.0636 75.7211C78.082 76.2632 77.2817 77.0823 76.7625 78.0761C76.2433 79.07 76.0281 80.1946 76.1437 81.31C76.2594 82.4253 76.7008 83.4819 77.4129 84.348C78.125 85.2142 79.0763 85.8516 80.1482 86.1808L116.927 97.1769C117.787 103.979 121.617 133.437 122.333 139.183C123.048 144.906 126.937 145.898 130.808 140.625C133.427 137.054 148.831 115.385 148.837 115.385L181.652 148.2C182.359 148.909 183.239 149.419 184.205 149.681C185.172 149.942 186.189 149.945 187.157 149.689C188.124 149.433 189.008 148.927 189.718 148.222C190.429 147.518 190.942 146.638 191.206 145.673L225.821 7.21153C226.072 6.3114 226.099 5.3634 225.898 4.45066C225.698 3.53793 225.276 2.68836 224.671 1.97646C224.065 1.26456 223.295 0.71208 222.426 0.367485C221.557 0.0228893 220.617 -0.103297 219.689 -7.52611e-06ZM211.404 16.95L182.373 133.056L149.742 100.419L197.154 34.6154L123.417 87.2596L96.5559 79.3269L211.392 16.9442L211.404 16.95Z" fill="url(#paint0_linear_21_18)" fill-opacity="0.67"/>
</g>
<g clip-path="url(#clip1_21_18)">
<path d="M2.09966 92.9548C2.35518 92.9699 2.60502 93.0363 2.83427 93.1502L50.4425 115.255C50.7802 115.415 51.0633 115.672 51.2565 115.991C51.4496 116.311 51.5444 116.681 51.5288 117.055C51.5133 117.428 51.3882 117.789 51.1691 118.092C50.95 118.394 50.6466 118.626 50.2967 118.758L38.2866 123.172C38.1405 125.453 37.4717 135.332 37.3519 137.259C37.2316 139.177 35.9583 139.588 34.5619 137.913C33.6171 136.779 28.0466 129.886 28.0447 129.886L17.8019 141.479C17.5814 141.729 17.2989 141.917 16.9828 142.024C16.6668 142.13 16.3282 142.152 16.001 142.087C15.6739 142.022 15.3696 141.872 15.1187 141.652C14.8678 141.432 14.679 141.15 14.5714 140.834L0.207616 95.4802C0.105548 95.1858 0.0772541 94.871 0.125216 94.5632C0.173178 94.2554 0.29593 93.9641 0.482706 93.7148C0.669482 93.4655 0.914577 93.2658 1.19649 93.1333C1.47841 93.0008 1.78853 92.9395 2.09966 92.9548ZM5.20449 98.4236L17.2505 136.455L27.4356 124.926L10.3087 104.008L35.9233 120.006L44.697 116.815L5.20821 98.4215L5.20449 98.4236Z" fill="url(#paint1_linear_21_18)" fill-opacity="0.67"/>
</g>
<path d="M9.04097 216.961C20.9632 214.458 32.9725 210.239 43.968 205.058C72.662 191.537 94.3148 169.694 118.646 150" stroke="#EEEEEE" stroke-width="7" stroke-linecap="round" stroke-dasharray="20 20"/>
<defs>
<linearGradient id="paint0_linear_21_18" x1="59.1443" y1="11.9552" x2="244.173" y2="38.2879" gradientUnits="userSpaceOnUse">
<stop stop-color="#B742FE"/>
<stop offset="1" stop-color="#0038FF" stop-opacity="0.29"/>
</linearGradient>
<linearGradient id="paint1_linear_21_18" x1="55.7583" y1="93.6309" x2="-5.2588" y2="106.197" gradientUnits="userSpaceOnUse">
<stop stop-color="#B742FE"/>
<stop offset="1" stop-color="#0038FF" stop-opacity="0.29"/>
</linearGradient>
<clipPath id="clip0_21_18">
<rect width="150" height="150" fill="white" transform="translate(76)"/>
</clipPath>
<clipPath id="clip1_21_18">
<rect width="50" height="50" fill="white" transform="matrix(-0.998095 0.0616911 0.0616911 0.998095 49.9048 90)"/>
</clipPath>
</defs>
</svg>
