<svg width="1348" height="563" viewBox="0 0 1348 563" fill="none" xmlns="http://www.w3.org/2000/svg">
<path d="M126.405 220.215C108.385 220.215 92.6175 216.24 79.1025 208.29C65.5875 200.34 54.9875 188.282 47.3025 172.117C39.8825 155.687 36.1725 135.017 36.1725 110.107C36.1725 84.9325 39.75 64.2625 46.905 48.0975C54.06 31.9325 64.395 19.875 77.91 11.925C91.425 3.975 107.59 0 126.405 0C146.545 0 164.565 4.6375 180.465 13.9125C196.63 22.9225 209.35 35.6425 218.625 52.0725C228.165 68.5025 232.935 87.8475 232.935 110.107C232.935 132.632 228.165 152.11 218.625 168.54C209.35 184.97 196.63 197.69 180.465 206.7C164.565 215.71 146.545 220.215 126.405 220.215ZM0 294.15V3.17998H59.2275V46.905L58.035 110.505L62.01 173.708V294.15L30.38 272.035L0 294.15ZM115.673 169.335C126.008 169.335 135.15 166.95 143.1 162.18C151.315 157.41 157.808 150.653 162.578 141.908C167.613 132.898 170.13 122.297 170.13 110.107C170.13 97.6525 167.613 87.0525 162.578 78.3075C157.808 69.5625 151.315 62.805 143.1 58.035C135.15 53.265 126.008 50.88 115.673 50.88C105.337 50.88 96.0625 53.265 87.8475 58.035C79.6325 62.805 73.14 69.5625 68.37 78.3075C63.6 87.0525 61.215 97.6525 61.215 110.107C61.215 122.297 63.6 132.898 68.37 141.908C73.14 150.653 79.6325 157.41 87.8475 162.18C96.0625 166.95 105.337 169.335 115.673 169.335Z" fill="url(#paint0_linear_102_2)"/>
<path d="M274.446 217.035V3.17998H333.673V63.6L325.326 46.11C331.686 31.005 341.888 19.61 355.933 11.925C369.978 3.975 387.071 0 407.211 0V57.24C404.561 56.975 402.176 56.8425 400.056 56.8425C397.936 56.5775 395.683 56.445 393.298 56.445C376.338 56.445 362.558 61.3475 351.958 71.1525C341.623 80.6925 336.456 95.665 336.456 116.07V217.035H274.446Z" fill="url(#paint1_linear_102_2)"/>
<path d="M548.662 220.215C524.282 220.215 502.817 215.445 484.267 205.905C465.982 196.365 451.804 183.38 441.734 166.95C431.664 150.255 426.629 131.307 426.629 110.107C426.629 88.6425 431.532 69.695 441.337 53.265C451.407 36.57 465.054 23.585 482.279 14.31C499.504 4.76999 518.982 0 540.712 0C561.647 0 580.462 4.505 597.157 13.515C614.117 22.26 627.499 34.98 637.304 51.675C647.109 68.105 652.012 87.8475 652.012 110.902C652.012 113.287 651.879 116.07 651.614 119.25C651.349 122.165 651.084 124.947 650.819 127.597H477.112V91.425H618.224L594.374 102.158C594.374 91.0275 592.122 81.355 587.617 73.14C583.112 64.925 576.884 58.565 568.934 54.06C560.984 49.29 551.709 46.905 541.109 46.905C530.509 46.905 521.102 49.29 512.887 54.06C504.937 58.565 498.709 65.0575 494.204 73.5375C489.699 81.7525 487.447 91.5575 487.447 102.952V112.493C487.447 124.153 489.964 134.487 494.999 143.497C500.299 152.242 507.587 159 516.862 163.77C526.402 168.275 537.532 170.527 550.252 170.527C561.647 170.527 571.584 168.805 580.064 165.36C588.809 161.915 596.759 156.748 603.914 149.857L636.907 185.633C627.102 196.763 614.779 205.375 599.939 211.47C585.099 217.3 568.007 220.215 548.662 220.215Z" fill="url(#paint2_linear_102_2)"/>
<path d="M819.701 220.215C801.681 220.215 785.913 216.24 772.398 208.29C758.883 200.34 748.283 188.282 740.598 172.117C733.178 155.687 729.468 135.017 729.468 110.107C729.468 84.9325 733.046 64.2625 740.201 48.0975C747.356 31.9325 757.691 19.875 771.206 11.925C784.721 3.975 800.886 0 819.701 0C839.841 0 857.861 4.6375 873.761 13.9125C889.926 22.9225 902.646 35.6425 911.921 52.0725C921.461 68.5025 926.231 87.8475 926.231 110.107C926.231 132.632 921.461 152.11 911.921 168.54C902.646 184.97 889.926 197.69 873.761 206.7C857.861 215.71 839.841 220.215 819.701 220.215ZM693.296 294.15V3.17998H752.523V46.905L751.331 110.505L755.306 173.708V294.15H693.296ZM808.968 169.335C819.303 169.335 828.446 166.95 836.396 162.18C844.611 157.41 851.103 150.653 855.873 141.908C860.908 132.898 863.426 122.297 863.426 110.107C863.426 97.6525 860.908 87.0525 855.873 78.3075C851.103 69.5625 844.611 62.805 836.396 58.035C828.446 53.265 819.303 50.88 808.968 50.88C798.633 50.88 789.358 53.265 781.143 58.035C772.928 62.805 766.436 69.5625 761.666 78.3075C756.896 87.0525 754.511 97.6525 754.511 110.107C754.511 122.297 756.896 132.898 761.666 141.908C766.436 150.653 772.928 157.41 781.143 162.18C789.358 166.95 798.633 169.335 808.968 169.335Z" fill="url(#paint3_linear_102_2)"/>
<path d="M314.18 488.235C290.98 488.235 270.313 483.568 252.18 474.235C234.047 464.635 219.78 451.435 209.38 434.635C199.247 417.835 194.18 398.768 194.18 377.435C194.18 355.835 199.247 336.768 209.38 320.235C219.78 303.435 234.047 290.368 252.18 281.035C270.313 271.435 290.98 266.635 314.18 266.635C336.847 266.635 356.58 271.435 373.38 281.035C390.18 290.368 402.58 303.835 410.58 321.435L362.18 347.435C356.58 337.302 349.513 329.835 340.98 325.035C332.713 320.235 323.647 317.835 313.78 317.835C303.113 317.835 293.513 320.235 284.98 325.035C276.447 329.835 269.647 336.635 264.58 345.435C259.78 354.235 257.38 364.902 257.38 377.435C257.38 389.968 259.78 400.635 264.58 409.435C269.647 418.235 276.447 425.035 284.98 429.835C293.513 434.635 303.113 437.035 313.78 437.035C323.647 437.035 332.713 434.768 340.98 430.235C349.513 425.435 356.58 417.835 362.18 407.435L410.58 433.835C402.58 451.168 390.18 464.635 373.38 474.235C356.58 483.568 336.847 488.235 314.18 488.235Z" fill="url(#paint4_linear_102_2)"/>
<path d="M578.508 485.035V443.035L574.508 433.835V358.635C574.508 345.302 570.375 334.902 562.108 327.435C554.108 319.968 541.708 316.235 524.908 316.235C513.441 316.235 502.108 318.102 490.908 321.835C479.975 325.302 470.641 330.102 462.908 336.235L440.508 292.635C452.241 284.368 466.375 277.968 482.908 273.435C499.441 268.902 516.241 266.635 533.308 266.635C566.108 266.635 591.575 274.368 609.708 289.835C627.841 305.302 636.908 329.435 636.908 362.235V485.035H578.508ZM512.908 488.235C496.108 488.235 481.708 485.435 469.708 479.835C457.708 473.968 448.508 466.102 442.108 456.235C435.708 446.368 432.508 435.302 432.508 423.035C432.508 410.235 435.575 399.035 441.708 389.435C448.108 379.835 458.108 372.368 471.708 367.035C485.308 361.435 503.041 358.635 524.908 358.635H582.108V395.035H531.708C517.041 395.035 506.908 397.435 501.308 402.235C495.975 407.035 493.308 413.035 493.308 420.235C493.308 428.235 496.375 434.635 502.508 439.435C508.908 443.968 517.575 446.235 528.508 446.235C538.908 446.235 548.241 443.835 556.508 439.035C564.775 433.968 570.775 426.635 574.508 417.035L584.108 445.835C579.575 459.702 571.308 470.235 559.308 477.435C547.308 484.635 531.841 488.235 512.908 488.235Z" fill="url(#paint5_linear_102_2)"/>
<path d="M968.983 266.635C986.05 266.635 1001.12 270.102 1014.18 277.035C1027.52 283.702 1037.92 294.102 1045.38 308.235C1053.12 322.102 1056.98 339.968 1056.98 361.835V485.035H994.583V371.435C994.583 354.102 990.983 341.302 983.783 333.035C976.583 324.768 966.45 320.635 953.383 320.635C944.317 320.635 936.183 322.768 928.983 327.035C921.783 331.035 916.183 337.168 912.183 345.435C908.183 353.702 906.183 364.235 906.183 377.035V485.035H843.783V371.435C843.783 354.102 840.183 341.302 832.983 333.035C826.05 324.768 816.05 320.635 802.983 320.635C793.916 320.635 785.783 322.768 778.583 327.035C771.383 331.035 765.783 337.168 761.783 345.435C757.783 353.702 755.783 364.235 755.783 377.035V485.035H693.383L693.296 294.15H755.306L752.983 328.635L741.783 311.435C749.25 296.768 759.783 285.702 773.383 278.235C787.25 270.502 802.983 266.635 820.583 266.635C840.316 266.635 857.516 271.702 872.183 281.835C887.116 291.702 896.983 306.902 901.783 327.435L879.783 321.435C886.983 304.635 898.45 291.302 914.183 281.435C930.183 271.568 948.45 266.635 968.983 266.635Z" fill="url(#paint6_linear_102_2)"/>
<path d="M1240.11 488.235C1221.98 488.235 1206.11 484.235 1192.51 476.235C1178.91 468.235 1168.25 456.102 1160.51 439.835C1153.05 423.302 1149.31 402.502 1149.31 377.435C1149.31 352.102 1152.91 331.302 1160.11 315.035C1167.31 298.768 1177.71 286.635 1191.31 278.635C1204.91 270.635 1221.18 266.635 1240.11 266.635C1260.38 266.635 1278.51 271.302 1294.51 280.635C1310.78 289.702 1323.58 302.502 1332.91 319.035C1342.51 335.568 1347.31 355.035 1347.31 377.435C1347.31 400.102 1342.51 419.702 1332.91 436.235C1323.58 452.768 1310.78 465.568 1294.51 474.635C1278.51 483.702 1260.38 488.235 1240.11 488.235ZM1112.91 562.635V269.835H1172.51V313.835L1171.31 377.835L1175.31 441.435V562.635H1143.88H1112.91ZM1229.31 437.035C1239.71 437.035 1248.91 434.635 1256.91 429.835C1265.18 425.035 1271.71 418.235 1276.51 409.435C1281.58 400.368 1284.11 389.702 1284.11 377.435C1284.11 364.902 1281.58 354.235 1276.51 345.435C1271.71 336.635 1265.18 329.835 1256.91 325.035C1248.91 320.235 1239.71 317.835 1229.31 317.835C1218.91 317.835 1209.58 320.235 1201.31 325.035C1193.05 329.835 1186.51 336.635 1181.71 345.435C1176.91 354.235 1174.51 364.902 1174.51 377.435C1174.51 389.702 1176.91 400.368 1181.71 409.435C1186.51 418.235 1193.05 425.035 1201.31 429.835C1209.58 434.635 1218.91 437.035 1229.31 437.035Z" fill="url(#paint7_linear_102_2)"/>
<defs>
<linearGradient id="paint0_linear_102_2" x1="-347.5" y1="-98" x2="1591.5" y2="579.5" gradientUnits="userSpaceOnUse">
<stop offset="0.0762326" stop-color="#A200EE"/>
<stop offset="1" stop-color="#339DFF"/>
</linearGradient>
<linearGradient id="paint1_linear_102_2" x1="-347.5" y1="-98" x2="1591.5" y2="579.5" gradientUnits="userSpaceOnUse">
<stop offset="0.0762326" stop-color="#A200EE"/>
<stop offset="1" stop-color="#339DFF"/>
</linearGradient>
<linearGradient id="paint2_linear_102_2" x1="-347.5" y1="-98" x2="1591.5" y2="579.5" gradientUnits="userSpaceOnUse">
<stop offset="0.0762326" stop-color="#A200EE"/>
<stop offset="1" stop-color="#339DFF"/>
</linearGradient>
<linearGradient id="paint3_linear_102_2" x1="-347.5" y1="-98" x2="1591.5" y2="579.5" gradientUnits="userSpaceOnUse">
<stop offset="0.0762326" stop-color="#A200EE"/>
<stop offset="1" stop-color="#339DFF"/>
</linearGradient>
<linearGradient id="paint4_linear_102_2" x1="-347.5" y1="-98" x2="1591.5" y2="579.5" gradientUnits="userSpaceOnUse">
<stop offset="0.0762326" stop-color="#A200EE"/>
<stop offset="1" stop-color="#339DFF"/>
</linearGradient>
<linearGradient id="paint5_linear_102_2" x1="-347.5" y1="-98" x2="1591.5" y2="579.5" gradientUnits="userSpaceOnUse">
<stop offset="0.0762326" stop-color="#A200EE"/>
<stop offset="1" stop-color="#339DFF"/>
</linearGradient>
<linearGradient id="paint6_linear_102_2" x1="-347.5" y1="-98" x2="1591.5" y2="579.5" gradientUnits="userSpaceOnUse">
<stop offset="0.0762326" stop-color="#A200EE"/>
<stop offset="1" stop-color="#339DFF"/>
</linearGradient>
<linearGradient id="paint7_linear_102_2" x1="-347.5" y1="-98" x2="1591.5" y2="579.5" gradientUnits="userSpaceOnUse">
<stop offset="0.0762326" stop-color="#A200EE"/>
<stop offset="1" stop-color="#339DFF"/>
</linearGradient>
</defs>
</svg>
