<svg width="134" height="113" viewBox="0 0 134 113" fill="none" xmlns="http://www.w3.org/2000/svg">
<path d="M51.2999 84.35C44.3999 84.35 38.4999 82.85 33.5999 79.85C28.6999 76.75 24.9499 72.15 22.3499 66.05C19.8499 59.85 18.5999 51.95 18.5999 42.35C18.5999 32.65 19.7999 24.75 22.1999 18.65C24.5999 12.45 28.1999 7.85001 32.9999 4.85001C37.8999 1.85001 43.9999 0.350006 51.2999 0.350006C58.6999 0.350006 65.3999 2.10001 71.3999 5.60001C77.4999 9.00001 82.2999 13.85 85.7999 20.15C89.3999 26.35 91.1999 33.75 91.1999 42.35C91.1999 50.95 89.3999 58.4 85.7999 64.7C82.2999 71 77.4999 75.85 71.3999 79.25C65.3999 82.65 58.6999 84.35 51.2999 84.35ZM0.149902 112.1V1.7H27.2999V15.5L27.1499 42.35L28.6499 69.35V112.1L14 104L0.149902 112.1ZM45.2999 61.7C48.4999 61.7 51.3499 60.95 53.8499 59.45C56.4499 57.95 58.4999 55.75 59.9999 52.85C61.5999 49.95 62.3999 46.45 62.3999 42.35C62.3999 38.25 61.5999 34.75 59.9999 31.85C58.4999 28.95 56.4499 26.75 53.8499 25.25C51.3499 23.75 48.4999 23 45.2999 23C42.0999 23 39.1999 23.75 36.5999 25.25C34.0999 26.75 32.0499 28.95 30.4499 31.85C28.9499 34.75 28.1999 38.25 28.1999 42.35C28.1999 46.45 28.9499 49.95 30.4499 52.85C32.0499 55.75 34.0999 57.95 36.5999 59.45C39.1999 60.95 42.0999 61.7 45.2999 61.7Z" fill="black"/>
<path d="M116.007 84.35C111.207 84.35 107.157 82.75 103.857 79.55C100.557 76.35 98.9073 72.3 98.9073 67.4C98.9073 62.3 100.557 58.25 103.857 55.25C107.157 52.15 111.207 50.6 116.007 50.6C120.807 50.6 124.857 52.15 128.157 55.25C131.457 58.25 133.107 62.3 133.107 67.4C133.107 72.3 131.457 76.35 128.157 79.55C124.857 82.75 120.807 84.35 116.007 84.35Z" fill="black"/>
</svg>
